# Blender v2.78 (sub 0) OBJ File: '9.blend'
# www.blender.org
mtllib Backpack_01.mtl
o Backpack_Cube.024
v 3.432459 1.578424 -5.000000
v 3.432459 7.825385 -5.000000
v -2.752663 1.578424 -5.000000
v -2.752663 8.654243 -5.000000
v -2.331626 13.204427 -3.384237
v 0.973561 13.204427 -3.384237
v -2.752663 -0.014588 -3.638898
v 2.752663 -0.014588 -3.638898
v -2.252134 12.090693 -2.851506
v -1.919098 12.622852 -2.851506
v -2.548880 12.482273 -0.532731
v -2.215844 13.014435 -0.532731
v -4.057220 14.149379 -1.149252
v -3.760474 13.757797 -3.468026
v -3.236244 14.155066 -3.468027
v -3.532990 14.546648 -1.149252
v -4.946790 14.370370 -1.307848
v -4.781661 13.940886 -3.633011
v -5.055819 14.525055 -3.760384
v -5.220949 14.954538 -1.435221
v -5.656551 13.136408 -1.512545
v -5.344967 12.956032 -3.855298
v -5.894277 13.303783 -3.955130
v -6.205862 13.484159 -1.612377
v -5.833526 10.509777 -1.713831
v -5.552247 10.314325 -3.829537
v -6.200734 10.368277 -3.925303
v -6.482013 10.563727 -1.809598
v -5.517053 6.624909 -2.152911
v -5.502703 6.429457 -3.693924
v -6.158186 6.483409 -3.699434
v -6.172535 6.678860 -2.158421
v -5.517053 5.684177 -2.453680
v -5.502703 5.684177 -3.371079
v -6.158186 5.684177 -3.374359
v -6.172535 5.684177 -2.456960
v -2.333023 0.827688 -2.716328
v -2.529342 0.619393 -2.718471
v -2.599714 0.667579 -2.118902
v -2.403397 0.875874 -2.116758
v -4.194773 2.174102 -2.343860
v -4.124400 2.125915 -2.943429
v -3.928081 2.334210 -2.941285
v -3.998455 2.382396 -2.341716
v -5.097799 3.900976 -3.122959
v -5.294118 3.900976 -3.125103
v -5.364490 3.900976 -2.525534
v -5.168172 3.900976 -2.523390
v -5.983374 5.684177 -2.615307
v -5.977130 5.684177 -3.214876
v -5.691864 5.684177 -3.212732
v -5.698109 5.684177 -2.613163
v 3.432460 1.578424 5.000000
v 3.432460 7.825385 5.000000
v -2.752663 1.578424 5.000000
v -2.752663 8.654243 5.000000
v -2.331625 13.204427 3.384237
v 0.973561 13.204427 3.384237
v -2.752663 -0.014588 3.638898
v 2.752663 -0.014588 3.638898
v -2.752663 1.578424 0.000000
v -2.752663 8.654243 0.000000
v 4.996479 5.275657 -3.021708
v 3.873928 7.825385 -0.000000
v -2.331625 13.695745 0.000000
v 1.438286 13.695745 0.000000
v -2.752663 -0.014588 0.000000
v 2.752663 -0.014588 0.000000
v -2.252134 12.090693 2.851505
v -1.919098 12.622852 2.851505
v -2.548880 12.482273 0.532731
v -2.215844 13.014435 0.532731
v -4.057220 14.149379 1.149252
v -3.760474 13.757797 3.468027
v -3.236244 14.155066 3.468027
v -3.532990 14.546648 1.149252
v -4.946790 14.370370 1.307848
v -4.781660 13.940886 3.633012
v -5.055819 14.525055 3.760385
v -5.220949 14.954538 1.435221
v -5.656551 13.136408 1.512545
v -5.344967 12.956032 3.855298
v -5.894277 13.303783 3.955131
v -6.205862 13.484159 1.612378
v -5.833526 10.509777 1.713832
v -5.552247 10.314325 3.829538
v -6.200734 10.368277 3.925303
v -6.482013 10.563727 1.809598
v -5.517053 6.624909 2.152911
v -5.502703 6.429457 3.693924
v -6.158186 6.483409 3.699435
v -6.172535 6.678860 2.158422
v -5.517053 5.684177 2.453680
v -5.502703 5.684177 3.371079
v -6.158186 5.684177 3.374360
v -6.172535 5.684177 2.456961
v -2.333023 0.827688 2.716328
v -2.529342 0.619393 2.718471
v -2.599714 0.667579 2.118902
v -2.403396 0.875874 2.116758
v -4.194773 2.174102 2.343860
v -4.124401 2.125915 2.943429
v -3.928082 2.334210 2.941285
v -3.998455 2.382396 2.341716
v -5.097799 3.900976 3.122960
v -5.294118 3.900976 3.125104
v -5.364490 3.900976 2.525535
v -5.168172 3.900976 2.523391
v -5.983374 5.684177 2.615308
v -5.977130 5.684177 3.214877
v -5.691864 5.684177 3.212733
v -5.698109 5.684177 2.613163
v 3.657844 5.814065 -3.021708
v 3.657844 2.038768 -3.021708
v 3.247015 0.884600 0.000000
v 3.247015 1.076044 -2.199137
v 3.953241 6.113320 -0.000000
v 3.657844 5.814065 3.021707
v 3.657844 2.038768 3.021707
v 3.247015 1.076044 2.199137
v 4.996479 1.765084 -3.021708
v 4.996479 1.765084 -0.000000
v 4.585649 0.610917 -0.000000
v 4.585649 0.802361 -2.199138
v 4.996479 5.574911 -0.000000
v 4.996479 5.275657 3.021707
v 4.996479 1.765084 3.021707
v 4.585649 0.802361 2.199137
v -0.908626 13.408873 -1.976000
v -0.908626 13.491301 -1.408237
v -0.449439 13.491301 -1.408237
v -0.449439 13.408873 -1.976000
v -0.908626 13.408873 1.976000
v -0.449439 13.408873 1.976000
v -0.449439 13.491301 1.408237
v -0.908626 13.491301 1.408237
v -0.908626 15.058174 -1.408237
v -0.908626 14.691683 -1.976000
v -0.449439 14.691683 -1.976000
v -0.449439 15.058174 -1.408237
v -0.908626 14.691683 1.976000
v -0.449439 14.691683 1.976000
v -0.908626 15.058174 1.408237
v -0.449439 15.058174 1.408237
v -0.449439 14.192309 -1.976000
v -0.449439 14.549938 -1.408237
v -0.908626 14.192309 -1.976000
v -0.908626 14.549938 -1.408237
v -0.908626 14.192309 1.976000
v -0.908626 14.549938 1.408237
v -0.449439 14.549938 1.408237
v -0.449439 14.192309 1.976000
v -0.449439 15.230559 0.000000
v -0.449439 14.722324 0.000000
v -0.908626 14.722324 0.000000
v -0.908626 15.230559 0.000000
vn -1.0000 0.0000 0.0000
vn 0.0000 0.0000 -1.0000
vn 0.0000 -1.0000 0.0000
vn 0.0000 -0.6496 -0.7603
vn 0.9162 -0.4005 -0.0112
vn 0.9162 -0.4005 0.0112
vn 0.0000 0.0000 1.0000
vn 0.0000 -0.6496 0.7603
vn 0.8995 -0.4366 -0.0143
vn 0.8995 -0.4366 0.0143
vn 0.4095 0.9057 0.1097
vn -0.1996 -0.9762 -0.0850
vn 0.4095 0.9057 -0.1097
vn 0.9952 0.0322 0.0926
vn 0.9936 0.0000 0.1132
vn 0.9936 0.0000 -0.1132
vn 0.9952 0.0322 -0.0926
vn 0.9304 -0.3663 -0.0134
vn 1.0000 0.0000 0.0000
vn 0.9304 -0.3663 0.0134
vn -0.1996 -0.9762 0.0850
vn -0.1253 -0.6130 -0.7801
vn -0.1253 -0.6130 0.7801
vn 0.9036 0.4106 -0.1217
vn 0.0275 0.3145 -0.9489
vn -0.9961 0.0883 -0.0052
vn 0.8315 -0.5204 0.1943
vn -0.1297 0.1601 0.9785
vn -0.2050 0.1891 0.9603
vn 0.2050 -0.1891 -0.9603
vn 0.7607 0.6490 -0.0122
vn -0.7446 -0.6673 0.0174
vn -0.8075 0.5687 -0.1568
vn 0.1266 -0.1593 -0.9791
vn 0.2371 0.9604 -0.1462
vn -0.2285 -0.9623 0.1474
vn -0.1792 -0.0559 0.9822
vn 0.8441 -0.5138 0.1533
vn -0.2470 0.0180 0.9689
vn 0.2740 0.0077 -0.9617
vn 0.0736 -0.0455 -0.9962
vn 0.1533 -0.0240 -0.9879
vn -0.9849 0.1020 -0.1396
vn 0.9875 -0.0766 0.1378
vn -0.9999 -0.0002 -0.0117
vn -0.9962 -0.0439 -0.0758
vn 0.9962 0.0440 0.0758
vn -0.0858 -0.1074 0.9905
vn 0.9999 0.0002 0.0117
vn -0.0186 -0.2957 0.9551
vn -0.0097 -0.3868 -0.9221
vn 0.7199 -0.6800 0.1391
vn 0.9036 0.4106 0.1217
vn 0.0275 0.3145 0.9489
vn -0.9961 0.0883 0.0052
vn 0.8315 -0.5204 -0.1943
vn -0.1297 0.1601 -0.9785
vn -0.2050 0.1891 -0.9603
vn 0.2050 -0.1891 0.9603
vn 0.7607 0.6490 0.0122
vn -0.7446 -0.6673 -0.0174
vn -0.8075 0.5687 0.1568
vn 0.1266 -0.1593 0.9791
vn 0.2371 0.9604 0.1462
vn -0.2285 -0.9623 -0.1474
vn -0.1792 -0.0559 -0.9822
vn 0.8441 -0.5138 -0.1533
vn -0.2470 0.0180 -0.9689
vn 0.2740 0.0077 0.9617
vn 0.0736 -0.0455 0.9962
vn 0.1533 -0.0240 0.9879
vn -0.9849 0.1020 0.1396
vn 0.9875 -0.0766 -0.1378
vn -0.9999 -0.0002 0.0117
vn -0.9962 -0.0439 0.0758
vn 0.9962 0.0440 -0.0758
vn -0.0858 -0.1074 -0.9905
vn 0.9999 0.0002 -0.0117
vn -0.0186 -0.2957 -0.9551
vn -0.0097 -0.3868 0.9221
vn 0.7199 -0.6800 -0.1391
vn -0.0000 0.9896 -0.1437
vn 0.0000 0.9896 0.1437
vn 0.7911 0.6079 0.0684
vn -0.8256 -0.5593 -0.0744
vn 0.0498 -0.0734 -0.9961
vn 0.0793 -0.0645 -0.9948
vn 0.9511 0.3028 0.0608
vn -0.0089 0.0474 0.9988
vn 0.0089 -0.0471 -0.9989
vn -0.0507 0.0750 0.9959
vn -0.9367 -0.3450 -0.0598
vn -0.0793 0.0645 0.9948
vn 0.6848 0.7284 0.0218
vn -0.6848 -0.7284 -0.0218
vn 0.7911 0.6079 -0.0684
vn -0.8256 -0.5593 0.0744
vn 0.0498 -0.0734 0.9961
vn 0.0793 -0.0645 0.9948
vn 0.9511 0.3028 -0.0608
vn -0.0089 0.0474 -0.9988
vn 0.0089 -0.0471 0.9989
vn -0.0507 0.0750 -0.9959
vn -0.9367 -0.3450 0.0598
vn -0.0793 0.0645 -0.9948
vn 0.6848 0.7284 -0.0218
vn -0.6848 -0.7284 0.0218
vn 0.0000 0.8402 -0.5423
vn -0.0000 0.8402 0.5423
vn 0.0000 -0.9926 -0.1215
vn -0.0000 0.9926 0.1215
vn -0.0000 0.9926 -0.1215
vn 0.0000 -0.9926 0.1215
usemtl FF9800
s off
f 61//1 62//1 4//1 3//1
f 3//2 4//2 2//2 1//2
f 67//3 7//3 8//3 68//3
f 3//4 1//4 8//4 7//4
f 61//1 3//1 7//1 67//1
f 8//5 1//5 114//5 116//5
f 53//6 60//6 120//6 119//6
f 61//1 55//1 56//1 62//1
f 55//7 53//7 54//7 56//7
f 67//3 68//3 60//3 59//3
f 55//8 59//8 60//8 53//8
f 61//1 67//1 59//1 55//1
f 68//9 8//9 116//9 115//9
f 60//10 68//10 115//10 120//10
f 114//2 113//2 63//2 121//2
f 117//11 118//11 126//11 125//11
f 115//12 116//12 124//12 123//12
f 113//13 117//13 125//13 63//13
f 64//14 54//14 118//14 117//14
f 54//15 53//15 119//15 118//15
f 1//16 2//16 113//16 114//16
f 2//17 64//17 117//17 113//17
f 121//18 122//18 123//18 124//18
f 121//19 63//19 125//19 122//19
f 127//20 128//20 123//20 122//20
f 127//19 122//19 125//19 126//19
f 120//21 115//21 123//21 128//21
f 118//7 119//7 127//7 126//7
f 116//22 114//22 121//22 124//22
f 119//23 120//23 128//23 127//23
usemtl 4CAF50
f 64//24 2//24 6//24 66//24
f 2//25 4//25 5//25 6//25
f 4//26 62//26 65//26 5//26
f 9//27 10//27 12//27 11//27
f 13//28 16//28 20//28 17//28
f 11//29 12//29 16//29 13//29
f 10//30 9//30 14//30 15//30
f 12//31 10//31 15//31 16//31
f 9//32 11//32 13//32 14//32
f 20//33 19//33 23//33 24//33
f 15//34 14//34 18//34 19//34
f 16//35 15//35 19//35 20//35
f 14//36 13//36 17//36 18//36
f 21//37 24//37 28//37 25//37
f 18//38 17//38 21//38 22//38
f 17//39 20//39 24//39 21//39
f 19//40 18//40 22//40 23//40
f 27//41 26//41 30//41 31//41
f 23//42 22//42 26//42 27//42
f 24//43 23//43 27//43 28//43
f 22//44 21//44 25//44 26//44
f 32//45 31//45 35//45 36//45
f 28//46 27//46 31//46 32//46
f 26//47 25//47 29//47 30//47
f 25//48 28//48 32//48 29//48
f 33//3 36//3 49//3 52//3
f 30//49 29//49 33//49 34//49
f 29//50 32//50 36//50 33//50
f 31//51 30//51 34//51 35//51
f 34//3 33//3 52//3 51//3
f 36//3 35//3 50//3 49//3
f 35//3 34//3 51//3 50//3
f 37//52 40//52 39//52 38//52
f 64//53 66//53 58//53 54//53
f 54//54 58//54 57//54 56//54
f 56//55 57//55 65//55 62//55
f 69//56 71//56 72//56 70//56
f 73//57 77//57 80//57 76//57
f 71//58 73//58 76//58 72//58
f 70//59 75//59 74//59 69//59
f 72//60 76//60 75//60 70//60
f 69//61 74//61 73//61 71//61
f 80//62 84//62 83//62 79//62
f 75//63 79//63 78//63 74//63
f 76//64 80//64 79//64 75//64
f 74//65 78//65 77//65 73//65
f 81//66 85//66 88//66 84//66
f 78//67 82//67 81//67 77//67
f 77//68 81//68 84//68 80//68
f 79//69 83//69 82//69 78//69
f 87//70 91//70 90//70 86//70
f 83//71 87//71 86//71 82//71
f 84//72 88//72 87//72 83//72
f 82//73 86//73 85//73 81//73
f 92//74 96//74 95//74 91//74
f 88//75 92//75 91//75 87//75
f 86//76 90//76 89//76 85//76
f 85//77 89//77 92//77 88//77
f 93//3 112//3 109//3 96//3
f 90//78 94//78 93//78 89//78
f 89//79 93//79 96//79 92//79
f 91//80 95//80 94//80 90//80
f 94//3 111//3 112//3 93//3
f 96//3 109//3 110//3 95//3
f 95//3 110//3 111//3 94//3
f 97//81 98//81 99//81 100//81
f 5//82 65//82 130//82 129//82
f 65//82 66//82 131//82 130//82
f 66//82 6//82 132//82 131//82
f 6//82 5//82 129//82 132//82
f 57//83 58//83 134//83 133//83
f 58//83 66//83 135//83 134//83
f 66//83 65//83 136//83 135//83
f 65//83 57//83 133//83 136//83
usemtl 1A1A1A
f 146//19 145//19 139//19 140//19
f 45//84 48//84 44//84 43//84
f 47//85 46//85 42//85 41//85
f 46//86 45//86 43//86 42//86
f 42//87 43//87 37//87 38//87
f 51//88 52//88 48//88 45//88
f 52//89 49//89 47//89 48//89
f 50//90 51//90 45//90 46//90
f 48//91 47//91 41//91 44//91
f 49//92 50//92 46//92 47//92
f 44//93 41//93 39//93 40//93
f 43//94 44//94 40//94 37//94
f 41//95 42//95 38//95 39//95
f 150//1 149//1 141//1 143//1
f 105//96 103//96 104//96 108//96
f 107//97 101//97 102//97 106//97
f 106//98 102//98 103//98 105//98
f 102//99 98//99 97//99 103//99
f 111//100 105//100 108//100 112//100
f 112//101 108//101 107//101 109//101
f 110//102 106//102 105//102 111//102
f 108//103 104//103 101//103 107//103
f 109//104 107//104 106//104 110//104
f 104//105 100//105 99//105 101//105
f 103//106 97//106 100//106 104//106
f 101//107 99//107 98//107 102//107
f 138//108 137//108 140//108 139//108
f 141//109 142//109 144//109 143//109
f 145//2 147//2 138//2 139//2
f 152//19 151//19 144//19 142//19
f 149//7 152//7 142//7 141//7
f 154//110 151//110 150//110 155//110
f 153//19 144//19 151//19 154//19
f 147//1 148//1 137//1 138//1
f 129//1 130//1 148//1 147//1
f 130//7 131//7 146//7 148//7
f 132//2 129//2 147//2 145//2
f 131//19 132//19 145//19 146//19
f 135//2 136//2 150//2 151//2
f 133//7 134//7 152//7 149//7
f 134//19 135//19 151//19 152//19
f 136//1 133//1 149//1 150//1
f 155//1 150//1 143//1 156//1
f 156//111 143//111 144//111 153//111
f 137//112 156//112 153//112 140//112
f 148//1 155//1 156//1 137//1
f 140//19 153//19 154//19 146//19
f 146//113 154//113 155//113 148//113
